# xmcd CD database file
#
# Track frame offsets:
#	150
#	9265
#	25768
#	41055
#	57278
#	81530
#	103170
#	132533
#	145915
#	162873
#	182615
#	193138
#	211030
#	227025
#	259590
#	279785
#
# Disc length: 4035 seconds
#
# Revision: 2
# Processed by: cddbd v1.5.2PL0 Copyright (c) Steve Scherf et al.
# Submitted via: CDex 1.51
#
DISCID=da0fc110
DTITLE=Mike Blloomfield and Nick Gravenites - Mill Valley Bunch
DYEAR=1972
DGENRE=Blues
TTITLE0=Honky-Tonk Blues
TTITLE1=Betty and Dupree
TTITLE2=Ooh-Ooh-Ooh, La, La, La
TTITLE3=Run For Cover
TTITLE4=What Would I Do Without My Baby
TTITLE5=Mellow Mountain Wine
TTITLE6=Let Me Down Easy
TTITLE7=Jimmy's Blues
TTITLE8=Young Girl's Blues (Janis Blues)
TTITLE9=Letting Go Ain't Easy
TTITLE10=By, Bye, I'm Goin'
TTITLE11=Bells Are Gonna Ring
TTITLE12=I've Had It!
TTITLE13=Bedroom Blues
TTITLE14=Your Hollywood Blues
TTITLE15=Go Home Blues
EXTD=YEAR: 1972
EXTT0=
EXTT1=
EXTT2=
EXTT3=
EXTT4=
EXTT5=
EXTT6=
EXTT7=
EXTT8=
EXTT9=
EXTT10=
EXTT11=
EXTT12=
EXTT13=
EXTT14=
EXTT15=
PLAYORDER=
